# xmcd CD database file
#
# Track frame offsets:
#	150
#	28537
#	53995
#	85435
#	113217
#	155382
#	179755
#	202432
#	228565
#	249277
#	274290
#
# Disc length: 4129 seconds
#
# Revision: 0
# Processed by: cddbd v1.5.1PL0 Copyright (c) Steve Scherf et al.
# Submitted via: CDex 1.50
#
DISCID=a1101f0b
DTITLE=Thomas Rückert - Debut
DYEAR=2002
DGENRE=Jazz
TTITLE0=Like someone in love
TTITLE1=26-2
TTITLE2=Dharma
TTITLE3=Aparksha
TTITLE4=Never let me go
TTITLE5=All or nothing at all
TTITLE6=Jnana
TTITLE7=Hommage a Arvo Pärt
TTITLE8=Prelude
TTITLE9=Ummg
TTITLE10=You're my everything
EXTD=YEAR: 2002
EXTT0=
EXTT1=
EXTT2=
EXTT3=
EXTT4=
EXTT5=
EXTT6=
EXTT7=
EXTT8=
EXTT9=
EXTT10=
PLAYORDER=
